# xmcd
#
# Track frame offsets:
#	150
#	11484
#	22664
#	41220
#	56426
#	66912
#	87364
#	97091
#	112040
#	126313
#	136501
#
# Disc length: 2074 seconds
#
# Revision: 1
# Processed by: cddbd v1.5.2PL0 Copyright (c) Steve Scherf et al.
# Submitted via: audiograbber 1.83.01
#
DISCID=8e08180b
DTITLE=Orb Mellon - Moan
DYEAR=2009
DGENRE=Blues
TTITLE0=Baby Blue
TTITLE1=Burn
TTITLE2=I'll Never Go
TTITLE3=Gonna Find It
TTITLE4=I'm Just A Man
TTITLE5=Weigh My Heart
TTITLE6=Heart Is Blue
TTITLE7=The Reaper
TTITLE8=Angel
TTITLE9=Love You All The Time
TTITLE10=Moan
EXTD=
EXTT0=
EXTT1=
EXTT2=
EXTT3=
EXTT4=
EXTT5=
EXTT6=
EXTT7=
EXTT8=
EXTT9=
EXTT10=
PLAYORDER=
